<svg width="69" height="39" viewBox="0 0 69 39" fill="none" xmlns="http://www.w3.org/2000/svg">
<g filter="url(#filter0_di_365_75)">
<path d="M2.21 0.399998H33.41V8.464H22.85V34H12.77V8.464H2.21V0.399998ZM52.1233 34.72H46.2192C41.1312 34.72 37.4832 33.68 35.2752 31.6C33.0992 29.488 32.0112 25.728 32.0112 20.32C32.0112 14.912 33.1152 11.152 35.3232 9.04C37.5312 6.928 41.1632 5.872 46.2192 5.872H52.1233C57.1793 5.872 60.8113 6.928 63.0193 9.04C65.2273 11.152 66.3313 14.912 66.3313 20.32C66.3313 25.728 65.2273 29.488 63.0193 31.6C60.8433 33.68 57.2113 34.72 52.1233 34.72ZM47.2272 26.704H51.1153C53.5792 26.704 55.2112 26.224 56.0113 25.264C56.8112 24.304 57.2112 22.656 57.2112 20.32C57.2112 17.952 56.8112 16.288 56.0113 15.328C55.2112 14.336 53.5792 13.84 51.1153 13.84H47.2272C44.7632 13.84 43.1312 14.336 42.3312 15.328C41.5312 16.288 41.1312 17.952 41.1312 20.32C41.1312 22.656 41.5312 24.304 42.3312 25.264C43.1312 26.224 44.7632 26.704 47.2272 26.704Z" fill="white"/>
<path d="M2.21 0.399998V-0.600002H1.21V0.399998H2.21ZM33.41 0.399998H34.41V-0.600002H33.41V0.399998ZM33.41 8.464V9.464H34.41V8.464H33.41ZM22.85 8.464V7.464H21.85V8.464H22.85ZM22.85 34V35H23.85V34H22.85ZM12.77 34H11.77V35H12.77V34ZM12.77 8.464H13.77V7.464H12.77V8.464ZM2.21 8.464H1.21V9.464H2.21V8.464ZM2.21 1.4H33.41V-0.600002H2.21V1.4ZM32.41 0.399998V8.464H34.41V0.399998H32.41ZM33.41 7.464H22.85V9.464H33.41V7.464ZM21.85 8.464V34H23.85V8.464H21.85ZM22.85 33H12.77V35H22.85V33ZM13.77 34V8.464H11.77V34H13.77ZM12.77 7.464H2.21V9.464H12.77V7.464ZM3.21 8.464V0.399998H1.21V8.464H3.21ZM35.2752 31.6L34.5788 32.3176L34.5841 32.3228L34.5896 32.3279L35.2752 31.6ZM35.3232 9.04L34.632 8.31736L34.632 8.31736L35.3232 9.04ZM63.0193 9.04L63.7105 8.31736L63.7105 8.31736L63.0193 9.04ZM63.0193 31.6L63.7102 32.3229L63.7105 32.3226L63.0193 31.6ZM56.0113 25.264L56.7795 25.9042L56.7795 25.9042L56.0113 25.264ZM56.0113 15.328L55.2328 15.9558L55.2379 15.962L55.243 15.9682L56.0113 15.328ZM42.3312 15.328L43.0995 15.9682L43.1046 15.962L43.1097 15.9558L42.3312 15.328ZM42.3312 25.264L41.563 25.9042L41.563 25.9042L42.3312 25.264ZM52.1233 33.72H46.2192V35.72H52.1233V33.72ZM46.2192 33.72C41.2248 33.72 37.8923 32.6915 35.9609 30.8721L34.5896 32.3279C37.0742 34.6685 41.0377 35.72 46.2192 35.72V33.72ZM35.9717 30.8824C34.0953 29.0612 33.0112 25.6527 33.0112 20.32H31.0112C31.0112 25.8033 32.1032 29.9148 34.5788 32.3176L35.9717 30.8824ZM33.0112 20.32C33.0112 14.9902 34.1102 11.5842 36.0145 9.76264L34.632 8.31736C32.1203 10.7198 31.0112 14.8338 31.0112 20.32H33.0112ZM36.0145 9.76264C37.9467 7.91442 41.2619 6.872 46.2192 6.872V4.872C41.0646 4.872 37.1158 5.94158 34.632 8.31736L36.0145 9.76264ZM46.2192 6.872H52.1233V4.872H46.2192V6.872ZM52.1233 6.872C57.0806 6.872 60.3958 7.91442 62.328 9.76264L63.7105 8.31736C61.2267 5.94158 57.2779 4.872 52.1233 4.872V6.872ZM62.328 9.76264C64.2323 11.5842 65.3313 14.9902 65.3313 20.32H67.3313C67.3313 14.8338 66.2222 10.7198 63.7105 8.31736L62.328 9.76264ZM65.3313 20.32C65.3313 25.6498 64.2323 29.0558 62.328 30.8774L63.7105 32.3226C66.2222 29.9202 67.3313 25.8062 67.3313 20.32H65.3313ZM62.3283 30.8771C60.431 32.6907 57.1197 33.72 52.1233 33.72V35.72C57.3028 35.72 61.2555 34.6693 63.7102 32.3229L62.3283 30.8771ZM47.2272 27.704H51.1153V25.704H47.2272V27.704ZM51.1153 27.704C53.6169 27.704 55.67 27.2356 56.7795 25.9042L55.243 24.6238C54.7525 25.2124 53.5416 25.704 51.1153 25.704V27.704ZM56.7795 25.9042C57.8133 24.6636 58.2112 22.712 58.2112 20.32H56.2112C56.2112 22.6 55.8092 23.9444 55.243 24.6238L56.7795 25.9042ZM58.2112 20.32C58.2112 17.9001 57.8146 15.93 56.7795 14.6878L55.243 15.9682C55.8079 16.646 56.2112 18.0039 56.2112 20.32H58.2112ZM56.7897 14.7002C55.6823 13.3272 53.6241 12.84 51.1153 12.84V14.84C53.5344 14.84 54.7402 15.3448 55.2328 15.9558L56.7897 14.7002ZM51.1153 12.84H47.2272V14.84H51.1153V12.84ZM47.2272 12.84C44.7184 12.84 42.6602 13.3272 41.5528 14.7002L43.1097 15.9558C43.6023 15.3448 44.8081 14.84 47.2272 14.84V12.84ZM41.563 14.6878C40.5279 15.93 40.1312 17.9001 40.1312 20.32H42.1312C42.1312 18.0039 42.5346 16.646 43.0995 15.9682L41.563 14.6878ZM40.1312 20.32C40.1312 22.712 40.5292 24.6636 41.563 25.9042L43.0995 24.6238C42.5333 23.9444 42.1312 22.6 42.1312 20.32H40.1312ZM41.563 25.9042C42.6725 27.2356 44.7256 27.704 47.2272 27.704V25.704C44.8009 25.704 43.59 25.2124 43.0995 24.6238L41.563 25.9042Z" fill="black"/>
</g>
<defs>
<filter id="filter0_di_365_75" x="0.209961" y="0.400391" width="68.1211" height="38.3203" filterUnits="userSpaceOnUse" color-interpolation-filters="sRGB">
<feFlood flood-opacity="0" result="BackgroundImageFix"/>
<feColorMatrix in="SourceAlpha" type="matrix" values="0 0 0 0 0 0 0 0 0 0 0 0 0 0 0 0 0 0 127 0" result="hardAlpha"/>
<feOffset dy="2"/>
<feGaussianBlur stdDeviation="1"/>
<feComposite in2="hardAlpha" operator="out"/>
<feColorMatrix type="matrix" values="0 0 0 0 0 0 0 0 0 0 0 0 0 0 0 0 0 0 0.5 0"/>
<feBlend mode="normal" in2="BackgroundImageFix" result="effect1_dropShadow_365_75"/>
<feBlend mode="normal" in="SourceGraphic" in2="effect1_dropShadow_365_75" result="shape"/>
<feColorMatrix in="SourceAlpha" type="matrix" values="0 0 0 0 0 0 0 0 0 0 0 0 0 0 0 0 0 0 127 0" result="hardAlpha"/>
<feOffset dx="2" dy="4"/>
<feGaussianBlur stdDeviation="1"/>
<feComposite in2="hardAlpha" operator="arithmetic" k2="-1" k3="1"/>
<feColorMatrix type="matrix" values="0 0 0 0 0 0 0 0 0 0 0 0 0 0 0 0 0 0 0.15 0"/>
<feBlend mode="normal" in2="shape" result="effect2_innerShadow_365_75"/>
</filter>
</defs>
</svg>
